%
M48
M72
T01C0.03937
T02C0.04000
T03C0.12900
%
T01
X6000Y56300
X6000Y66300
X16000Y66300
X26000Y66300
X26000Y56300
X16000Y56300
X36000Y56300
X36000Y66300
X36000Y76300
X36000Y86300
X36000Y96300
X36000Y106300
X36000Y116300
X46000Y116300
X46000Y126300
X36000Y126300
X36000Y136300
X46000Y136300
X56000Y136300
X66000Y136300
X66000Y126300
X56000Y126300
X56000Y116300
X66000Y116300
X76000Y116300
X86000Y116300
X86000Y126300
X76000Y126300
X76000Y136300
X86000Y136300
X96000Y136300
X96000Y126300
X96000Y116300
X106000Y116300
X116000Y116300
X116000Y126300
X106000Y126300
X106000Y136300
X116000Y136300
X126000Y136300
X136000Y136300
X136000Y126300
X126000Y126300
X126000Y116300
X136000Y116300
X146000Y116300
X156000Y116300
X156000Y126300
X146000Y126300
X146000Y136300
X156000Y136300
X166000Y136300
X166000Y126300
X166000Y116300
X176000Y116300
X186000Y116300
X186000Y126300
X176000Y126300
X176000Y136300
X186000Y136300
X196000Y136300
X206000Y136300
X206000Y126300
X196000Y126300
X196000Y116300
X206000Y116300
X216000Y116300
X226000Y116300
X226000Y126300
X216000Y126300
X216000Y136300
X226000Y136300
X236000Y136300
X246000Y136300
X246000Y126300
X236000Y126300
X236000Y116300
X246000Y116300
X256000Y116300
X256000Y126300
X256000Y136300
X266000Y136300
X276000Y136300
X276000Y126300
X266000Y126300
X266000Y116300
X276000Y116300
X286000Y116300
X296000Y116300
X296000Y126300
X286000Y126300
X286000Y136300
X296000Y136300
X306000Y136300
X316000Y136300
X316000Y126300
X306000Y126300
X306000Y116300
X316000Y116300
X316000Y106300
X306000Y106300
X306000Y96300
X316000Y96300
X316000Y86300
X306000Y86300
X306000Y76300
X316000Y76300
X326000Y76300
X336000Y76300
X336000Y86300
X326000Y86300
X326000Y96300
X336000Y96300
X336000Y106300
X326000Y106300
X326000Y116300
X336000Y116300
X336000Y126300
X326000Y126300
X326000Y136300
X336000Y136300
X346000Y136300
X346000Y126300
X346000Y116300
X346000Y106300
X346000Y96300
X346000Y86300
X346000Y76300
X356000Y76300
X366000Y76300
X366000Y86300
X356000Y86300
X356000Y96300
X366000Y96300
X366000Y106300
X356000Y106300
X356000Y116300
X366000Y116300
X366000Y126300
X356000Y126300
X356000Y136300
X366000Y136300
X376000Y136300
X386000Y136300
X386000Y126300
X376000Y126300
X376000Y116300
X386000Y116300
X386000Y106300
X376000Y106300
X376000Y96300
X386000Y96300
X386000Y86300
X376000Y86300
X376000Y76300
X386000Y76300
X386000Y66300
X376000Y66300
X376000Y56300
X386000Y56300
X366000Y56300
X356000Y56300
X356000Y66300
X366000Y66300
X346000Y66300
X346000Y56300
X336000Y56300
X326000Y56300
X326000Y66300
X336000Y66300
X316000Y66300
X306000Y66300
X306000Y56300
X316000Y56300
X316000Y146300
X306000Y146300
X306000Y156300
X316000Y156300
X326000Y156300
X336000Y156300
X336000Y146300
X326000Y146300
X346000Y146300
X346000Y156300
X356000Y156300
X366000Y156300
X366000Y146300
X356000Y146300
X376000Y146300
X386000Y146300
X386000Y156300
X376000Y156300
X306000Y166300
X306000Y176300
X306000Y186300
X306000Y196300
X296000Y196300
X286000Y196300
X286000Y186300
X296000Y186300
X296000Y176300
X286000Y176300
X286000Y166300
X296000Y166300
X296000Y156300
X286000Y156300
X286000Y146300
X296000Y146300
X276000Y146300
X266000Y146300
X266000Y156300
X276000Y156300
X276000Y166300
X266000Y166300
X266000Y176300
X276000Y176300
X276000Y186300
X266000Y186300
X266000Y196300
X276000Y196300
X276000Y206300
X266000Y206300
X266000Y216300
X276000Y216300
X276000Y226300
X266000Y226300
X266000Y236300
X276000Y236300
X276000Y246300
X266000Y246300
X266000Y256300
X276000Y256300
X276000Y266300
X266000Y266300
X256000Y266300
X256000Y256300
X256000Y246300
X256000Y236300
X256000Y226300
X256000Y216300
X256000Y206300
X246000Y206300
X236000Y206300
X236000Y216300
X246000Y216300
X246000Y226300
X236000Y226300
X236000Y236300
X246000Y236300
X246000Y246300
X236000Y246300
X236000Y256300
X246000Y256300
X246000Y266300
X236000Y266300
X226000Y266300
X216000Y266300
X216000Y256300
X226000Y256300
X226000Y246300
X216000Y246300
X216000Y236300
X226000Y236300
X226000Y226300
X216000Y226300
X216000Y216300
X226000Y216300
X226000Y206300
X216000Y206300
X206000Y206300
X196000Y206300
X196000Y216300
X206000Y216300
X206000Y226300
X196000Y226300
X196000Y236300
X206000Y236300
X206000Y246300
X196000Y246300
X196000Y256300
X206000Y256300
X206000Y266300
X196000Y266300
X186000Y266300
X176000Y266300
X176000Y256300
X186000Y256300
X186000Y246300
X176000Y246300
X176000Y236300
X186000Y236300
X186000Y226300
X176000Y226300
X176000Y216300
X186000Y216300
X186000Y206300
X176000Y206300
X166000Y206300
X166000Y216300
X166000Y226300
X166000Y236300
X166000Y246300
X166000Y256300
X166000Y266300
X156000Y266300
X146000Y266300
X146000Y256300
X156000Y256300
X156000Y246300
X146000Y246300
X146000Y236300
X156000Y236300
X156000Y226300
X146000Y226300
X146000Y216300
X156000Y216300
X156000Y206300
X146000Y206300
X136000Y206300
X126000Y206300
X126000Y216300
X136000Y216300
X136000Y226300
X126000Y226300
X126000Y236300
X136000Y236300
X136000Y246300
X126000Y246300
X126000Y256300
X136000Y256300
X136000Y266300
X126000Y266300
X116000Y266300
X106000Y266300
X106000Y256300
X116000Y256300
X116000Y246300
X106000Y246300
X106000Y236300
X116000Y236300
X116000Y226300
X106000Y226300
X106000Y216300
X116000Y216300
X116000Y206300
X106000Y206300
X96000Y206300
X96000Y216300
X96000Y226300
X96000Y236300
X96000Y246300
X96000Y256300
X96000Y266300
X86000Y266300
X76000Y266300
X76000Y256300
X86000Y256300
X86000Y246300
X76000Y246300
X76000Y236300
X86000Y236300
X86000Y226300
X76000Y226300
X76000Y216300
X86000Y216300
X86000Y206300
X76000Y206300
X76000Y196300
X86000Y196300
X86000Y186300
X76000Y186300
X76000Y176300
X86000Y176300
X86000Y166300
X76000Y166300
X76000Y156300
X86000Y156300
X86000Y146300
X76000Y146300
X66000Y146300
X56000Y146300
X56000Y156300
X66000Y156300
X46000Y156300
X36000Y156300
X36000Y146300
X46000Y146300
X26000Y146300
X16000Y146300
X16000Y156300
X26000Y156300
X6000Y156300
X6000Y146300
X6000Y136300
X6000Y126300
X6000Y116300
X6000Y106300
X6000Y96300
X6000Y86300
X6000Y76300
X16000Y76300
X26000Y76300
X26000Y86300
X16000Y86300
X16000Y96300
X26000Y96300
X26000Y106300
X16000Y106300
X16000Y116300
X26000Y116300
X26000Y126300
X16000Y126300
X16000Y136300
X26000Y136300
X96000Y146300
X96000Y156300
X96000Y166300
X96000Y176300
X96000Y186300
X96000Y196300
X106000Y196300
X116000Y196300
X116000Y186300
X106000Y186300
X106000Y176300
X116000Y176300
X116000Y166300
X106000Y166300
X106000Y156300
X116000Y156300
X116000Y146300
X106000Y146300
X126000Y146300
X136000Y146300
X136000Y156300
X126000Y156300
X126000Y166300
X136000Y166300
X136000Y176300
X126000Y176300
X126000Y186300
X136000Y186300
X136000Y196300
X126000Y196300
X146000Y196300
X156000Y196300
X156000Y186300
X146000Y186300
X146000Y176300
X156000Y176300
X156000Y166300
X146000Y166300
X146000Y156300
X156000Y156300
X156000Y146300
X146000Y146300
X166000Y146300
X166000Y156300
X166000Y166300
X166000Y176300
X166000Y186300
X166000Y196300
X176000Y196300
X186000Y196300
X186000Y186300
X176000Y186300
X176000Y176300
X186000Y176300
X186000Y166300
X176000Y166300
X176000Y156300
X186000Y156300
X186000Y146300
X176000Y146300
X196000Y146300
X206000Y146300
X206000Y156300
X196000Y156300
X196000Y166300
X206000Y166300
X206000Y176300
X196000Y176300
X196000Y186300
X206000Y186300
X206000Y196300
X196000Y196300
X216000Y196300
X226000Y196300
X226000Y186300
X216000Y186300
X216000Y176300
X226000Y176300
X226000Y166300
X216000Y166300
X216000Y156300
X226000Y156300
X226000Y146300
X216000Y146300
X236000Y146300
X246000Y146300
X246000Y156300
X236000Y156300
X236000Y166300
X246000Y166300
X246000Y176300
X236000Y176300
X236000Y186300
X246000Y186300
X246000Y196300
X236000Y196300
X256000Y196300
X256000Y186300
X256000Y176300
X256000Y166300
X256000Y156300
X256000Y146300
X286000Y206300
X296000Y206300
X296000Y216300
X286000Y216300
X286000Y226300
X296000Y226300
X296000Y236300
X286000Y236300
X286000Y246300
X296000Y246300
X296000Y256300
X286000Y256300
X286000Y266300
X296000Y266300
X306000Y266300
X316000Y266300
X316000Y256300
X306000Y256300
X306000Y246300
X306000Y236300
X306000Y226300
X306000Y216300
X306000Y206300
X326000Y256300
X336000Y256300
X336000Y266300
X326000Y266300
X326000Y276300
X336000Y276300
X336000Y286300
X326000Y286300
X326000Y296300
X336000Y296300
X336000Y306300
X326000Y306300
X316000Y306300
X306000Y306300
X306000Y296300
X316000Y296300
X316000Y286300
X306000Y286300
X306000Y276300
X316000Y276300
X296000Y276300
X286000Y276300
X286000Y286300
X296000Y286300
X296000Y296300
X286000Y296300
X286000Y306300
X296000Y306300
X276000Y306300
X266000Y306300
X266000Y296300
X276000Y296300
X276000Y286300
X266000Y286300
X266000Y276300
X276000Y276300
X256000Y276300
X256000Y286300
X256000Y296300
X256000Y306300
X246000Y306300
X236000Y306300
X236000Y296300
X246000Y296300
X246000Y286300
X236000Y286300
X236000Y276300
X246000Y276300
X226000Y276300
X216000Y276300
X216000Y286300
X226000Y286300
X226000Y296300
X216000Y296300
X216000Y306300
X226000Y306300
X206000Y306300
X196000Y306300
X196000Y296300
X206000Y296300
X206000Y286300
X196000Y286300
X196000Y276300
X206000Y276300
X186000Y276300
X176000Y276300
X176000Y286300
X186000Y286300
X186000Y296300
X176000Y296300
X176000Y306300
X186000Y306300
X166000Y306300
X166000Y296300
X166000Y286300
X166000Y276300
X156000Y276300
X146000Y276300
X146000Y286300
X156000Y286300
X156000Y296300
X146000Y296300
X146000Y306300
X156000Y306300
X136000Y306300
X126000Y306300
X126000Y296300
X136000Y296300
X136000Y286300
X126000Y286300
X126000Y276300
X136000Y276300
X116000Y276300
X106000Y276300
X106000Y286300
X116000Y286300
X116000Y296300
X106000Y296300
X106000Y306300
X116000Y306300
X96000Y306300
X96000Y296300
X96000Y286300
X96000Y276300
X86000Y276300
X76000Y276300
X76000Y286300
X86000Y286300
X86000Y296300
X76000Y296300
X76000Y306300
X86000Y306300
X66000Y306300
X56000Y306300
X56000Y296300
X66000Y296300
X66000Y286300
X56000Y286300
X56000Y276300
X66000Y276300
X66000Y266300
X56000Y266300
X56000Y256300
X66000Y256300
X46000Y256300
X36000Y256300
X36000Y266300
X46000Y266300
X46000Y276300
X36000Y276300
X36000Y286300
X46000Y286300
X46000Y296300
X36000Y296300
X36000Y306300
X46000Y306300
X26000Y286300
X26000Y276300
X16000Y276300
X6000Y276300
X6000Y286300
X6000Y266300
X6000Y256300
X16000Y256300
X26000Y256300
X26000Y266300
X16000Y266300
X346000Y266300
X346000Y256300
X356000Y256300
X366000Y256300
X366000Y266300
X356000Y266300
X356000Y276300
X366000Y276300
X366000Y286300
X356000Y286300
X356000Y296300
X356000Y306300
X346000Y306300
X346000Y296300
X346000Y286300
X346000Y276300
X376000Y276300
X386000Y276300
X386000Y286300
X386000Y266300
X376000Y266300
X376000Y256300
X386000Y256300
T02
X296000Y106300
X286000Y106300
X276000Y106300
X266000Y106300
X256000Y106300
X246000Y106300
X236000Y106300
X226000Y106300
X216000Y106300
X206000Y106300
X196000Y106300
X186000Y106300
X176000Y106300
X166000Y106300
X156000Y106300
X146000Y106300
X136000Y106300
X126000Y106300
X116000Y106300
X106000Y106300
X96000Y106300
X86000Y106300
X76000Y106300
X66000Y106300
X56000Y106300
X46000Y106300
X51000Y46300
X61000Y46300
X61000Y36300
X51000Y36300
X71000Y36300
X81000Y36300
X81000Y46300
X71000Y46300
X91000Y46300
X101000Y46300
X101000Y36300
X91000Y36300
X111000Y36300
X121000Y36300
X121000Y46300
X111000Y46300
X131000Y46300
X131000Y36300
X141000Y36300
X151000Y36300
X151000Y46300
X141000Y46300
X161000Y46300
X171000Y46300
X171000Y36300
X161000Y36300
T03
X16000Y41300
X16000Y301300
X376000Y301300
X376000Y41300
M30
