G75*
%MOIN*%
%OFA0B0*%
%FSLAX25Y25*%
%IPPOS*%
%LPD*%
%AMOC8*
5,1,8,0,0,1.08239X$1,22.5*
%
%ADD10C,0.00000*%
%ADD11C,0.07400*%
%ADD12OC8,0.06000*%
%ADD13C,0.01600*%
%ADD14C,0.05906*%
D10*
X0001000Y0026300D02*
X0001000Y0316261D01*
X0389701Y0316261D01*
X0389701Y0026300D01*
X0001000Y0026300D01*
X0009550Y0041300D02*
X0009552Y0041460D01*
X0009558Y0041620D01*
X0009568Y0041780D01*
X0009582Y0041940D01*
X0009600Y0042099D01*
X0009621Y0042258D01*
X0009647Y0042416D01*
X0009677Y0042573D01*
X0009710Y0042730D01*
X0009748Y0042885D01*
X0009789Y0043040D01*
X0009834Y0043194D01*
X0009883Y0043346D01*
X0009936Y0043498D01*
X0009992Y0043648D01*
X0010053Y0043796D01*
X0010116Y0043943D01*
X0010184Y0044088D01*
X0010255Y0044232D01*
X0010329Y0044374D01*
X0010407Y0044513D01*
X0010489Y0044651D01*
X0010574Y0044787D01*
X0010662Y0044921D01*
X0010754Y0045052D01*
X0010849Y0045181D01*
X0010947Y0045308D01*
X0011048Y0045432D01*
X0011152Y0045554D01*
X0011259Y0045673D01*
X0011369Y0045790D01*
X0011482Y0045903D01*
X0011598Y0046014D01*
X0011716Y0046122D01*
X0011837Y0046227D01*
X0011961Y0046329D01*
X0012087Y0046427D01*
X0012215Y0046523D01*
X0012346Y0046615D01*
X0012479Y0046704D01*
X0012615Y0046790D01*
X0012752Y0046872D01*
X0012891Y0046951D01*
X0013033Y0047027D01*
X0013176Y0047099D01*
X0013321Y0047167D01*
X0013467Y0047232D01*
X0013615Y0047293D01*
X0013765Y0047350D01*
X0013916Y0047404D01*
X0014068Y0047454D01*
X0014221Y0047500D01*
X0014376Y0047542D01*
X0014531Y0047581D01*
X0014688Y0047615D01*
X0014845Y0047646D01*
X0015003Y0047672D01*
X0015161Y0047695D01*
X0015320Y0047714D01*
X0015480Y0047729D01*
X0015640Y0047740D01*
X0015800Y0047747D01*
X0015960Y0047750D01*
X0016120Y0047749D01*
X0016280Y0047744D01*
X0016440Y0047735D01*
X0016600Y0047722D01*
X0016759Y0047705D01*
X0016918Y0047684D01*
X0017076Y0047660D01*
X0017234Y0047631D01*
X0017391Y0047598D01*
X0017547Y0047562D01*
X0017702Y0047522D01*
X0017856Y0047477D01*
X0018008Y0047429D01*
X0018160Y0047378D01*
X0018310Y0047322D01*
X0018459Y0047263D01*
X0018606Y0047200D01*
X0018752Y0047133D01*
X0018896Y0047063D01*
X0019038Y0046990D01*
X0019179Y0046912D01*
X0019317Y0046832D01*
X0019453Y0046748D01*
X0019588Y0046660D01*
X0019720Y0046569D01*
X0019849Y0046475D01*
X0019977Y0046378D01*
X0020102Y0046278D01*
X0020224Y0046175D01*
X0020344Y0046068D01*
X0020461Y0045959D01*
X0020575Y0045847D01*
X0020686Y0045732D01*
X0020795Y0045614D01*
X0020901Y0045494D01*
X0021003Y0045371D01*
X0021103Y0045245D01*
X0021199Y0045117D01*
X0021292Y0044987D01*
X0021382Y0044854D01*
X0021469Y0044719D01*
X0021552Y0044583D01*
X0021632Y0044444D01*
X0021708Y0044303D01*
X0021781Y0044160D01*
X0021850Y0044016D01*
X0021916Y0043870D01*
X0021978Y0043722D01*
X0022036Y0043573D01*
X0022091Y0043422D01*
X0022142Y0043270D01*
X0022189Y0043117D01*
X0022232Y0042963D01*
X0022271Y0042808D01*
X0022307Y0042651D01*
X0022338Y0042494D01*
X0022366Y0042337D01*
X0022390Y0042178D01*
X0022410Y0042019D01*
X0022426Y0041860D01*
X0022438Y0041700D01*
X0022446Y0041540D01*
X0022450Y0041380D01*
X0022450Y0041220D01*
X0022446Y0041060D01*
X0022438Y0040900D01*
X0022426Y0040740D01*
X0022410Y0040581D01*
X0022390Y0040422D01*
X0022366Y0040263D01*
X0022338Y0040106D01*
X0022307Y0039949D01*
X0022271Y0039792D01*
X0022232Y0039637D01*
X0022189Y0039483D01*
X0022142Y0039330D01*
X0022091Y0039178D01*
X0022036Y0039027D01*
X0021978Y0038878D01*
X0021916Y0038730D01*
X0021850Y0038584D01*
X0021781Y0038440D01*
X0021708Y0038297D01*
X0021632Y0038156D01*
X0021552Y0038017D01*
X0021469Y0037881D01*
X0021382Y0037746D01*
X0021292Y0037613D01*
X0021199Y0037483D01*
X0021103Y0037355D01*
X0021003Y0037229D01*
X0020901Y0037106D01*
X0020795Y0036986D01*
X0020686Y0036868D01*
X0020575Y0036753D01*
X0020461Y0036641D01*
X0020344Y0036532D01*
X0020224Y0036425D01*
X0020102Y0036322D01*
X0019977Y0036222D01*
X0019849Y0036125D01*
X0019720Y0036031D01*
X0019588Y0035940D01*
X0019453Y0035852D01*
X0019317Y0035768D01*
X0019179Y0035688D01*
X0019038Y0035610D01*
X0018896Y0035537D01*
X0018752Y0035467D01*
X0018606Y0035400D01*
X0018459Y0035337D01*
X0018310Y0035278D01*
X0018160Y0035222D01*
X0018008Y0035171D01*
X0017856Y0035123D01*
X0017702Y0035078D01*
X0017547Y0035038D01*
X0017391Y0035002D01*
X0017234Y0034969D01*
X0017076Y0034940D01*
X0016918Y0034916D01*
X0016759Y0034895D01*
X0016600Y0034878D01*
X0016440Y0034865D01*
X0016280Y0034856D01*
X0016120Y0034851D01*
X0015960Y0034850D01*
X0015800Y0034853D01*
X0015640Y0034860D01*
X0015480Y0034871D01*
X0015320Y0034886D01*
X0015161Y0034905D01*
X0015003Y0034928D01*
X0014845Y0034954D01*
X0014688Y0034985D01*
X0014531Y0035019D01*
X0014376Y0035058D01*
X0014221Y0035100D01*
X0014068Y0035146D01*
X0013916Y0035196D01*
X0013765Y0035250D01*
X0013615Y0035307D01*
X0013467Y0035368D01*
X0013321Y0035433D01*
X0013176Y0035501D01*
X0013033Y0035573D01*
X0012891Y0035649D01*
X0012752Y0035728D01*
X0012615Y0035810D01*
X0012479Y0035896D01*
X0012346Y0035985D01*
X0012215Y0036077D01*
X0012087Y0036173D01*
X0011961Y0036271D01*
X0011837Y0036373D01*
X0011716Y0036478D01*
X0011598Y0036586D01*
X0011482Y0036697D01*
X0011369Y0036810D01*
X0011259Y0036927D01*
X0011152Y0037046D01*
X0011048Y0037168D01*
X0010947Y0037292D01*
X0010849Y0037419D01*
X0010754Y0037548D01*
X0010662Y0037679D01*
X0010574Y0037813D01*
X0010489Y0037949D01*
X0010407Y0038087D01*
X0010329Y0038226D01*
X0010255Y0038368D01*
X0010184Y0038512D01*
X0010116Y0038657D01*
X0010053Y0038804D01*
X0009992Y0038952D01*
X0009936Y0039102D01*
X0009883Y0039254D01*
X0009834Y0039406D01*
X0009789Y0039560D01*
X0009748Y0039715D01*
X0009710Y0039870D01*
X0009677Y0040027D01*
X0009647Y0040184D01*
X0009621Y0040342D01*
X0009600Y0040501D01*
X0009582Y0040660D01*
X0009568Y0040820D01*
X0009558Y0040980D01*
X0009552Y0041140D01*
X0009550Y0041300D01*
X0009550Y0301300D02*
X0009552Y0301460D01*
X0009558Y0301620D01*
X0009568Y0301780D01*
X0009582Y0301940D01*
X0009600Y0302099D01*
X0009621Y0302258D01*
X0009647Y0302416D01*
X0009677Y0302573D01*
X0009710Y0302730D01*
X0009748Y0302885D01*
X0009789Y0303040D01*
X0009834Y0303194D01*
X0009883Y0303346D01*
X0009936Y0303498D01*
X0009992Y0303648D01*
X0010053Y0303796D01*
X0010116Y0303943D01*
X0010184Y0304088D01*
X0010255Y0304232D01*
X0010329Y0304374D01*
X0010407Y0304513D01*
X0010489Y0304651D01*
X0010574Y0304787D01*
X0010662Y0304921D01*
X0010754Y0305052D01*
X0010849Y0305181D01*
X0010947Y0305308D01*
X0011048Y0305432D01*
X0011152Y0305554D01*
X0011259Y0305673D01*
X0011369Y0305790D01*
X0011482Y0305903D01*
X0011598Y0306014D01*
X0011716Y0306122D01*
X0011837Y0306227D01*
X0011961Y0306329D01*
X0012087Y0306427D01*
X0012215Y0306523D01*
X0012346Y0306615D01*
X0012479Y0306704D01*
X0012615Y0306790D01*
X0012752Y0306872D01*
X0012891Y0306951D01*
X0013033Y0307027D01*
X0013176Y0307099D01*
X0013321Y0307167D01*
X0013467Y0307232D01*
X0013615Y0307293D01*
X0013765Y0307350D01*
X0013916Y0307404D01*
X0014068Y0307454D01*
X0014221Y0307500D01*
X0014376Y0307542D01*
X0014531Y0307581D01*
X0014688Y0307615D01*
X0014845Y0307646D01*
X0015003Y0307672D01*
X0015161Y0307695D01*
X0015320Y0307714D01*
X0015480Y0307729D01*
X0015640Y0307740D01*
X0015800Y0307747D01*
X0015960Y0307750D01*
X0016120Y0307749D01*
X0016280Y0307744D01*
X0016440Y0307735D01*
X0016600Y0307722D01*
X0016759Y0307705D01*
X0016918Y0307684D01*
X0017076Y0307660D01*
X0017234Y0307631D01*
X0017391Y0307598D01*
X0017547Y0307562D01*
X0017702Y0307522D01*
X0017856Y0307477D01*
X0018008Y0307429D01*
X0018160Y0307378D01*
X0018310Y0307322D01*
X0018459Y0307263D01*
X0018606Y0307200D01*
X0018752Y0307133D01*
X0018896Y0307063D01*
X0019038Y0306990D01*
X0019179Y0306912D01*
X0019317Y0306832D01*
X0019453Y0306748D01*
X0019588Y0306660D01*
X0019720Y0306569D01*
X0019849Y0306475D01*
X0019977Y0306378D01*
X0020102Y0306278D01*
X0020224Y0306175D01*
X0020344Y0306068D01*
X0020461Y0305959D01*
X0020575Y0305847D01*
X0020686Y0305732D01*
X0020795Y0305614D01*
X0020901Y0305494D01*
X0021003Y0305371D01*
X0021103Y0305245D01*
X0021199Y0305117D01*
X0021292Y0304987D01*
X0021382Y0304854D01*
X0021469Y0304719D01*
X0021552Y0304583D01*
X0021632Y0304444D01*
X0021708Y0304303D01*
X0021781Y0304160D01*
X0021850Y0304016D01*
X0021916Y0303870D01*
X0021978Y0303722D01*
X0022036Y0303573D01*
X0022091Y0303422D01*
X0022142Y0303270D01*
X0022189Y0303117D01*
X0022232Y0302963D01*
X0022271Y0302808D01*
X0022307Y0302651D01*
X0022338Y0302494D01*
X0022366Y0302337D01*
X0022390Y0302178D01*
X0022410Y0302019D01*
X0022426Y0301860D01*
X0022438Y0301700D01*
X0022446Y0301540D01*
X0022450Y0301380D01*
X0022450Y0301220D01*
X0022446Y0301060D01*
X0022438Y0300900D01*
X0022426Y0300740D01*
X0022410Y0300581D01*
X0022390Y0300422D01*
X0022366Y0300263D01*
X0022338Y0300106D01*
X0022307Y0299949D01*
X0022271Y0299792D01*
X0022232Y0299637D01*
X0022189Y0299483D01*
X0022142Y0299330D01*
X0022091Y0299178D01*
X0022036Y0299027D01*
X0021978Y0298878D01*
X0021916Y0298730D01*
X0021850Y0298584D01*
X0021781Y0298440D01*
X0021708Y0298297D01*
X0021632Y0298156D01*
X0021552Y0298017D01*
X0021469Y0297881D01*
X0021382Y0297746D01*
X0021292Y0297613D01*
X0021199Y0297483D01*
X0021103Y0297355D01*
X0021003Y0297229D01*
X0020901Y0297106D01*
X0020795Y0296986D01*
X0020686Y0296868D01*
X0020575Y0296753D01*
X0020461Y0296641D01*
X0020344Y0296532D01*
X0020224Y0296425D01*
X0020102Y0296322D01*
X0019977Y0296222D01*
X0019849Y0296125D01*
X0019720Y0296031D01*
X0019588Y0295940D01*
X0019453Y0295852D01*
X0019317Y0295768D01*
X0019179Y0295688D01*
X0019038Y0295610D01*
X0018896Y0295537D01*
X0018752Y0295467D01*
X0018606Y0295400D01*
X0018459Y0295337D01*
X0018310Y0295278D01*
X0018160Y0295222D01*
X0018008Y0295171D01*
X0017856Y0295123D01*
X0017702Y0295078D01*
X0017547Y0295038D01*
X0017391Y0295002D01*
X0017234Y0294969D01*
X0017076Y0294940D01*
X0016918Y0294916D01*
X0016759Y0294895D01*
X0016600Y0294878D01*
X0016440Y0294865D01*
X0016280Y0294856D01*
X0016120Y0294851D01*
X0015960Y0294850D01*
X0015800Y0294853D01*
X0015640Y0294860D01*
X0015480Y0294871D01*
X0015320Y0294886D01*
X0015161Y0294905D01*
X0015003Y0294928D01*
X0014845Y0294954D01*
X0014688Y0294985D01*
X0014531Y0295019D01*
X0014376Y0295058D01*
X0014221Y0295100D01*
X0014068Y0295146D01*
X0013916Y0295196D01*
X0013765Y0295250D01*
X0013615Y0295307D01*
X0013467Y0295368D01*
X0013321Y0295433D01*
X0013176Y0295501D01*
X0013033Y0295573D01*
X0012891Y0295649D01*
X0012752Y0295728D01*
X0012615Y0295810D01*
X0012479Y0295896D01*
X0012346Y0295985D01*
X0012215Y0296077D01*
X0012087Y0296173D01*
X0011961Y0296271D01*
X0011837Y0296373D01*
X0011716Y0296478D01*
X0011598Y0296586D01*
X0011482Y0296697D01*
X0011369Y0296810D01*
X0011259Y0296927D01*
X0011152Y0297046D01*
X0011048Y0297168D01*
X0010947Y0297292D01*
X0010849Y0297419D01*
X0010754Y0297548D01*
X0010662Y0297679D01*
X0010574Y0297813D01*
X0010489Y0297949D01*
X0010407Y0298087D01*
X0010329Y0298226D01*
X0010255Y0298368D01*
X0010184Y0298512D01*
X0010116Y0298657D01*
X0010053Y0298804D01*
X0009992Y0298952D01*
X0009936Y0299102D01*
X0009883Y0299254D01*
X0009834Y0299406D01*
X0009789Y0299560D01*
X0009748Y0299715D01*
X0009710Y0299870D01*
X0009677Y0300027D01*
X0009647Y0300184D01*
X0009621Y0300342D01*
X0009600Y0300501D01*
X0009582Y0300660D01*
X0009568Y0300820D01*
X0009558Y0300980D01*
X0009552Y0301140D01*
X0009550Y0301300D01*
X0369550Y0301300D02*
X0369552Y0301460D01*
X0369558Y0301620D01*
X0369568Y0301780D01*
X0369582Y0301940D01*
X0369600Y0302099D01*
X0369621Y0302258D01*
X0369647Y0302416D01*
X0369677Y0302573D01*
X0369710Y0302730D01*
X0369748Y0302885D01*
X0369789Y0303040D01*
X0369834Y0303194D01*
X0369883Y0303346D01*
X0369936Y0303498D01*
X0369992Y0303648D01*
X0370053Y0303796D01*
X0370116Y0303943D01*
X0370184Y0304088D01*
X0370255Y0304232D01*
X0370329Y0304374D01*
X0370407Y0304513D01*
X0370489Y0304651D01*
X0370574Y0304787D01*
X0370662Y0304921D01*
X0370754Y0305052D01*
X0370849Y0305181D01*
X0370947Y0305308D01*
X0371048Y0305432D01*
X0371152Y0305554D01*
X0371259Y0305673D01*
X0371369Y0305790D01*
X0371482Y0305903D01*
X0371598Y0306014D01*
X0371716Y0306122D01*
X0371837Y0306227D01*
X0371961Y0306329D01*
X0372087Y0306427D01*
X0372215Y0306523D01*
X0372346Y0306615D01*
X0372479Y0306704D01*
X0372615Y0306790D01*
X0372752Y0306872D01*
X0372891Y0306951D01*
X0373033Y0307027D01*
X0373176Y0307099D01*
X0373321Y0307167D01*
X0373467Y0307232D01*
X0373615Y0307293D01*
X0373765Y0307350D01*
X0373916Y0307404D01*
X0374068Y0307454D01*
X0374221Y0307500D01*
X0374376Y0307542D01*
X0374531Y0307581D01*
X0374688Y0307615D01*
X0374845Y0307646D01*
X0375003Y0307672D01*
X0375161Y0307695D01*
X0375320Y0307714D01*
X0375480Y0307729D01*
X0375640Y0307740D01*
X0375800Y0307747D01*
X0375960Y0307750D01*
X0376120Y0307749D01*
X0376280Y0307744D01*
X0376440Y0307735D01*
X0376600Y0307722D01*
X0376759Y0307705D01*
X0376918Y0307684D01*
X0377076Y0307660D01*
X0377234Y0307631D01*
X0377391Y0307598D01*
X0377547Y0307562D01*
X0377702Y0307522D01*
X0377856Y0307477D01*
X0378008Y0307429D01*
X0378160Y0307378D01*
X0378310Y0307322D01*
X0378459Y0307263D01*
X0378606Y0307200D01*
X0378752Y0307133D01*
X0378896Y0307063D01*
X0379038Y0306990D01*
X0379179Y0306912D01*
X0379317Y0306832D01*
X0379453Y0306748D01*
X0379588Y0306660D01*
X0379720Y0306569D01*
X0379849Y0306475D01*
X0379977Y0306378D01*
X0380102Y0306278D01*
X0380224Y0306175D01*
X0380344Y0306068D01*
X0380461Y0305959D01*
X0380575Y0305847D01*
X0380686Y0305732D01*
X0380795Y0305614D01*
X0380901Y0305494D01*
X0381003Y0305371D01*
X0381103Y0305245D01*
X0381199Y0305117D01*
X0381292Y0304987D01*
X0381382Y0304854D01*
X0381469Y0304719D01*
X0381552Y0304583D01*
X0381632Y0304444D01*
X0381708Y0304303D01*
X0381781Y0304160D01*
X0381850Y0304016D01*
X0381916Y0303870D01*
X0381978Y0303722D01*
X0382036Y0303573D01*
X0382091Y0303422D01*
X0382142Y0303270D01*
X0382189Y0303117D01*
X0382232Y0302963D01*
X0382271Y0302808D01*
X0382307Y0302651D01*
X0382338Y0302494D01*
X0382366Y0302337D01*
X0382390Y0302178D01*
X0382410Y0302019D01*
X0382426Y0301860D01*
X0382438Y0301700D01*
X0382446Y0301540D01*
X0382450Y0301380D01*
X0382450Y0301220D01*
X0382446Y0301060D01*
X0382438Y0300900D01*
X0382426Y0300740D01*
X0382410Y0300581D01*
X0382390Y0300422D01*
X0382366Y0300263D01*
X0382338Y0300106D01*
X0382307Y0299949D01*
X0382271Y0299792D01*
X0382232Y0299637D01*
X0382189Y0299483D01*
X0382142Y0299330D01*
X0382091Y0299178D01*
X0382036Y0299027D01*
X0381978Y0298878D01*
X0381916Y0298730D01*
X0381850Y0298584D01*
X0381781Y0298440D01*
X0381708Y0298297D01*
X0381632Y0298156D01*
X0381552Y0298017D01*
X0381469Y0297881D01*
X0381382Y0297746D01*
X0381292Y0297613D01*
X0381199Y0297483D01*
X0381103Y0297355D01*
X0381003Y0297229D01*
X0380901Y0297106D01*
X0380795Y0296986D01*
X0380686Y0296868D01*
X0380575Y0296753D01*
X0380461Y0296641D01*
X0380344Y0296532D01*
X0380224Y0296425D01*
X0380102Y0296322D01*
X0379977Y0296222D01*
X0379849Y0296125D01*
X0379720Y0296031D01*
X0379588Y0295940D01*
X0379453Y0295852D01*
X0379317Y0295768D01*
X0379179Y0295688D01*
X0379038Y0295610D01*
X0378896Y0295537D01*
X0378752Y0295467D01*
X0378606Y0295400D01*
X0378459Y0295337D01*
X0378310Y0295278D01*
X0378160Y0295222D01*
X0378008Y0295171D01*
X0377856Y0295123D01*
X0377702Y0295078D01*
X0377547Y0295038D01*
X0377391Y0295002D01*
X0377234Y0294969D01*
X0377076Y0294940D01*
X0376918Y0294916D01*
X0376759Y0294895D01*
X0376600Y0294878D01*
X0376440Y0294865D01*
X0376280Y0294856D01*
X0376120Y0294851D01*
X0375960Y0294850D01*
X0375800Y0294853D01*
X0375640Y0294860D01*
X0375480Y0294871D01*
X0375320Y0294886D01*
X0375161Y0294905D01*
X0375003Y0294928D01*
X0374845Y0294954D01*
X0374688Y0294985D01*
X0374531Y0295019D01*
X0374376Y0295058D01*
X0374221Y0295100D01*
X0374068Y0295146D01*
X0373916Y0295196D01*
X0373765Y0295250D01*
X0373615Y0295307D01*
X0373467Y0295368D01*
X0373321Y0295433D01*
X0373176Y0295501D01*
X0373033Y0295573D01*
X0372891Y0295649D01*
X0372752Y0295728D01*
X0372615Y0295810D01*
X0372479Y0295896D01*
X0372346Y0295985D01*
X0372215Y0296077D01*
X0372087Y0296173D01*
X0371961Y0296271D01*
X0371837Y0296373D01*
X0371716Y0296478D01*
X0371598Y0296586D01*
X0371482Y0296697D01*
X0371369Y0296810D01*
X0371259Y0296927D01*
X0371152Y0297046D01*
X0371048Y0297168D01*
X0370947Y0297292D01*
X0370849Y0297419D01*
X0370754Y0297548D01*
X0370662Y0297679D01*
X0370574Y0297813D01*
X0370489Y0297949D01*
X0370407Y0298087D01*
X0370329Y0298226D01*
X0370255Y0298368D01*
X0370184Y0298512D01*
X0370116Y0298657D01*
X0370053Y0298804D01*
X0369992Y0298952D01*
X0369936Y0299102D01*
X0369883Y0299254D01*
X0369834Y0299406D01*
X0369789Y0299560D01*
X0369748Y0299715D01*
X0369710Y0299870D01*
X0369677Y0300027D01*
X0369647Y0300184D01*
X0369621Y0300342D01*
X0369600Y0300501D01*
X0369582Y0300660D01*
X0369568Y0300820D01*
X0369558Y0300980D01*
X0369552Y0301140D01*
X0369550Y0301300D01*
X0369550Y0041300D02*
X0369552Y0041460D01*
X0369558Y0041620D01*
X0369568Y0041780D01*
X0369582Y0041940D01*
X0369600Y0042099D01*
X0369621Y0042258D01*
X0369647Y0042416D01*
X0369677Y0042573D01*
X0369710Y0042730D01*
X0369748Y0042885D01*
X0369789Y0043040D01*
X0369834Y0043194D01*
X0369883Y0043346D01*
X0369936Y0043498D01*
X0369992Y0043648D01*
X0370053Y0043796D01*
X0370116Y0043943D01*
X0370184Y0044088D01*
X0370255Y0044232D01*
X0370329Y0044374D01*
X0370407Y0044513D01*
X0370489Y0044651D01*
X0370574Y0044787D01*
X0370662Y0044921D01*
X0370754Y0045052D01*
X0370849Y0045181D01*
X0370947Y0045308D01*
X0371048Y0045432D01*
X0371152Y0045554D01*
X0371259Y0045673D01*
X0371369Y0045790D01*
X0371482Y0045903D01*
X0371598Y0046014D01*
X0371716Y0046122D01*
X0371837Y0046227D01*
X0371961Y0046329D01*
X0372087Y0046427D01*
X0372215Y0046523D01*
X0372346Y0046615D01*
X0372479Y0046704D01*
X0372615Y0046790D01*
X0372752Y0046872D01*
X0372891Y0046951D01*
X0373033Y0047027D01*
X0373176Y0047099D01*
X0373321Y0047167D01*
X0373467Y0047232D01*
X0373615Y0047293D01*
X0373765Y0047350D01*
X0373916Y0047404D01*
X0374068Y0047454D01*
X0374221Y0047500D01*
X0374376Y0047542D01*
X0374531Y0047581D01*
X0374688Y0047615D01*
X0374845Y0047646D01*
X0375003Y0047672D01*
X0375161Y0047695D01*
X0375320Y0047714D01*
X0375480Y0047729D01*
X0375640Y0047740D01*
X0375800Y0047747D01*
X0375960Y0047750D01*
X0376120Y0047749D01*
X0376280Y0047744D01*
X0376440Y0047735D01*
X0376600Y0047722D01*
X0376759Y0047705D01*
X0376918Y0047684D01*
X0377076Y0047660D01*
X0377234Y0047631D01*
X0377391Y0047598D01*
X0377547Y0047562D01*
X0377702Y0047522D01*
X0377856Y0047477D01*
X0378008Y0047429D01*
X0378160Y0047378D01*
X0378310Y0047322D01*
X0378459Y0047263D01*
X0378606Y0047200D01*
X0378752Y0047133D01*
X0378896Y0047063D01*
X0379038Y0046990D01*
X0379179Y0046912D01*
X0379317Y0046832D01*
X0379453Y0046748D01*
X0379588Y0046660D01*
X0379720Y0046569D01*
X0379849Y0046475D01*
X0379977Y0046378D01*
X0380102Y0046278D01*
X0380224Y0046175D01*
X0380344Y0046068D01*
X0380461Y0045959D01*
X0380575Y0045847D01*
X0380686Y0045732D01*
X0380795Y0045614D01*
X0380901Y0045494D01*
X0381003Y0045371D01*
X0381103Y0045245D01*
X0381199Y0045117D01*
X0381292Y0044987D01*
X0381382Y0044854D01*
X0381469Y0044719D01*
X0381552Y0044583D01*
X0381632Y0044444D01*
X0381708Y0044303D01*
X0381781Y0044160D01*
X0381850Y0044016D01*
X0381916Y0043870D01*
X0381978Y0043722D01*
X0382036Y0043573D01*
X0382091Y0043422D01*
X0382142Y0043270D01*
X0382189Y0043117D01*
X0382232Y0042963D01*
X0382271Y0042808D01*
X0382307Y0042651D01*
X0382338Y0042494D01*
X0382366Y0042337D01*
X0382390Y0042178D01*
X0382410Y0042019D01*
X0382426Y0041860D01*
X0382438Y0041700D01*
X0382446Y0041540D01*
X0382450Y0041380D01*
X0382450Y0041220D01*
X0382446Y0041060D01*
X0382438Y0040900D01*
X0382426Y0040740D01*
X0382410Y0040581D01*
X0382390Y0040422D01*
X0382366Y0040263D01*
X0382338Y0040106D01*
X0382307Y0039949D01*
X0382271Y0039792D01*
X0382232Y0039637D01*
X0382189Y0039483D01*
X0382142Y0039330D01*
X0382091Y0039178D01*
X0382036Y0039027D01*
X0381978Y0038878D01*
X0381916Y0038730D01*
X0381850Y0038584D01*
X0381781Y0038440D01*
X0381708Y0038297D01*
X0381632Y0038156D01*
X0381552Y0038017D01*
X0381469Y0037881D01*
X0381382Y0037746D01*
X0381292Y0037613D01*
X0381199Y0037483D01*
X0381103Y0037355D01*
X0381003Y0037229D01*
X0380901Y0037106D01*
X0380795Y0036986D01*
X0380686Y0036868D01*
X0380575Y0036753D01*
X0380461Y0036641D01*
X0380344Y0036532D01*
X0380224Y0036425D01*
X0380102Y0036322D01*
X0379977Y0036222D01*
X0379849Y0036125D01*
X0379720Y0036031D01*
X0379588Y0035940D01*
X0379453Y0035852D01*
X0379317Y0035768D01*
X0379179Y0035688D01*
X0379038Y0035610D01*
X0378896Y0035537D01*
X0378752Y0035467D01*
X0378606Y0035400D01*
X0378459Y0035337D01*
X0378310Y0035278D01*
X0378160Y0035222D01*
X0378008Y0035171D01*
X0377856Y0035123D01*
X0377702Y0035078D01*
X0377547Y0035038D01*
X0377391Y0035002D01*
X0377234Y0034969D01*
X0377076Y0034940D01*
X0376918Y0034916D01*
X0376759Y0034895D01*
X0376600Y0034878D01*
X0376440Y0034865D01*
X0376280Y0034856D01*
X0376120Y0034851D01*
X0375960Y0034850D01*
X0375800Y0034853D01*
X0375640Y0034860D01*
X0375480Y0034871D01*
X0375320Y0034886D01*
X0375161Y0034905D01*
X0375003Y0034928D01*
X0374845Y0034954D01*
X0374688Y0034985D01*
X0374531Y0035019D01*
X0374376Y0035058D01*
X0374221Y0035100D01*
X0374068Y0035146D01*
X0373916Y0035196D01*
X0373765Y0035250D01*
X0373615Y0035307D01*
X0373467Y0035368D01*
X0373321Y0035433D01*
X0373176Y0035501D01*
X0373033Y0035573D01*
X0372891Y0035649D01*
X0372752Y0035728D01*
X0372615Y0035810D01*
X0372479Y0035896D01*
X0372346Y0035985D01*
X0372215Y0036077D01*
X0372087Y0036173D01*
X0371961Y0036271D01*
X0371837Y0036373D01*
X0371716Y0036478D01*
X0371598Y0036586D01*
X0371482Y0036697D01*
X0371369Y0036810D01*
X0371259Y0036927D01*
X0371152Y0037046D01*
X0371048Y0037168D01*
X0370947Y0037292D01*
X0370849Y0037419D01*
X0370754Y0037548D01*
X0370662Y0037679D01*
X0370574Y0037813D01*
X0370489Y0037949D01*
X0370407Y0038087D01*
X0370329Y0038226D01*
X0370255Y0038368D01*
X0370184Y0038512D01*
X0370116Y0038657D01*
X0370053Y0038804D01*
X0369992Y0038952D01*
X0369936Y0039102D01*
X0369883Y0039254D01*
X0369834Y0039406D01*
X0369789Y0039560D01*
X0369748Y0039715D01*
X0369710Y0039870D01*
X0369677Y0040027D01*
X0369647Y0040184D01*
X0369621Y0040342D01*
X0369600Y0040501D01*
X0369582Y0040660D01*
X0369568Y0040820D01*
X0369558Y0040980D01*
X0369552Y0041140D01*
X0369550Y0041300D01*
D11*
X0296000Y0106300D03*
X0286000Y0106300D03*
X0276000Y0106300D03*
X0266000Y0106300D03*
X0256000Y0106300D03*
X0246000Y0106300D03*
X0236000Y0106300D03*
X0226000Y0106300D03*
X0216000Y0106300D03*
X0206000Y0106300D03*
X0196000Y0106300D03*
X0186000Y0106300D03*
X0176000Y0106300D03*
X0166000Y0106300D03*
X0156000Y0106300D03*
X0146000Y0106300D03*
X0136000Y0106300D03*
X0126000Y0106300D03*
X0116000Y0106300D03*
X0106000Y0106300D03*
X0096000Y0106300D03*
X0086000Y0106300D03*
X0076000Y0106300D03*
X0066000Y0106300D03*
X0056000Y0106300D03*
X0046000Y0106300D03*
D12*
X0051000Y0046300D03*
X0061000Y0046300D03*
X0061000Y0036300D03*
X0051000Y0036300D03*
X0071000Y0036300D03*
X0081000Y0036300D03*
X0081000Y0046300D03*
X0071000Y0046300D03*
X0091000Y0046300D03*
X0101000Y0046300D03*
X0101000Y0036300D03*
X0091000Y0036300D03*
X0111000Y0036300D03*
X0121000Y0036300D03*
X0121000Y0046300D03*
X0111000Y0046300D03*
X0131000Y0046300D03*
X0131000Y0036300D03*
X0141000Y0036300D03*
X0151000Y0036300D03*
X0151000Y0046300D03*
X0141000Y0046300D03*
X0161000Y0046300D03*
X0171000Y0046300D03*
X0171000Y0036300D03*
X0161000Y0036300D03*
D13*
X0161000Y0046300D02*
X0161000Y0051300D01*
X0181000Y0071300D01*
X0241000Y0071300D01*
X0276000Y0106300D01*
X0256000Y0106300D02*
X0226000Y0076300D01*
X0176000Y0076300D01*
X0151000Y0051300D01*
X0151000Y0046300D01*
X0141000Y0046300D02*
X0141000Y0051300D01*
X0171000Y0081300D01*
X0211000Y0081300D01*
X0236000Y0106300D01*
X0216000Y0106300D02*
X0196000Y0086300D01*
X0166000Y0086300D01*
X0131000Y0051300D01*
X0131000Y0046300D01*
X0121000Y0046300D02*
X0121000Y0051300D01*
X0161000Y0091300D01*
X0181000Y0091300D01*
X0196000Y0106300D01*
X0176000Y0106300D02*
X0166000Y0096300D01*
X0156000Y0096300D01*
X0111000Y0051300D01*
X0111000Y0046300D01*
X0101000Y0046300D02*
X0101000Y0051300D01*
X0156000Y0106300D01*
X0136000Y0106300D02*
X0091000Y0061300D01*
X0091000Y0046300D01*
X0081000Y0046300D02*
X0081000Y0071300D01*
X0116000Y0106300D01*
X0096000Y0106300D02*
X0071000Y0081300D01*
X0071000Y0046300D01*
X0061000Y0046300D02*
X0061000Y0091300D01*
X0076000Y0106300D01*
X0056000Y0106300D02*
X0051000Y0101300D01*
X0051000Y0046300D01*
X0171000Y0046300D02*
X0171000Y0051300D01*
X0186000Y0066300D01*
X0256000Y0066300D01*
X0296000Y0106300D01*
D14*
X0296000Y0116300D03*
X0286000Y0116300D03*
X0286000Y0126300D03*
X0296000Y0126300D03*
X0296000Y0136300D03*
X0286000Y0136300D03*
X0276000Y0136300D03*
X0266000Y0136300D03*
X0266000Y0126300D03*
X0276000Y0126300D03*
X0276000Y0116300D03*
X0266000Y0116300D03*
X0256000Y0116300D03*
X0256000Y0126300D03*
X0256000Y0136300D03*
X0246000Y0136300D03*
X0236000Y0136300D03*
X0236000Y0126300D03*
X0246000Y0126300D03*
X0246000Y0116300D03*
X0236000Y0116300D03*
X0226000Y0116300D03*
X0216000Y0116300D03*
X0216000Y0126300D03*
X0226000Y0126300D03*
X0226000Y0136300D03*
X0216000Y0136300D03*
X0206000Y0136300D03*
X0196000Y0136300D03*
X0196000Y0126300D03*
X0206000Y0126300D03*
X0206000Y0116300D03*
X0196000Y0116300D03*
X0186000Y0116300D03*
X0176000Y0116300D03*
X0176000Y0126300D03*
X0186000Y0126300D03*
X0186000Y0136300D03*
X0176000Y0136300D03*
X0166000Y0136300D03*
X0166000Y0126300D03*
X0166000Y0116300D03*
X0156000Y0116300D03*
X0146000Y0116300D03*
X0146000Y0126300D03*
X0156000Y0126300D03*
X0156000Y0136300D03*
X0146000Y0136300D03*
X0136000Y0136300D03*
X0126000Y0136300D03*
X0126000Y0126300D03*
X0136000Y0126300D03*
X0136000Y0116300D03*
X0126000Y0116300D03*
X0116000Y0116300D03*
X0106000Y0116300D03*
X0106000Y0126300D03*
X0116000Y0126300D03*
X0116000Y0136300D03*
X0106000Y0136300D03*
X0096000Y0136300D03*
X0096000Y0126300D03*
X0096000Y0116300D03*
X0086000Y0116300D03*
X0076000Y0116300D03*
X0076000Y0126300D03*
X0086000Y0126300D03*
X0086000Y0136300D03*
X0076000Y0136300D03*
X0066000Y0136300D03*
X0056000Y0136300D03*
X0056000Y0126300D03*
X0066000Y0126300D03*
X0066000Y0116300D03*
X0056000Y0116300D03*
X0046000Y0116300D03*
X0036000Y0116300D03*
X0036000Y0106300D03*
X0036000Y0096300D03*
X0036000Y0086300D03*
X0036000Y0076300D03*
X0026000Y0076300D03*
X0016000Y0076300D03*
X0016000Y0086300D03*
X0026000Y0086300D03*
X0026000Y0096300D03*
X0016000Y0096300D03*
X0016000Y0106300D03*
X0026000Y0106300D03*
X0026000Y0116300D03*
X0016000Y0116300D03*
X0016000Y0126300D03*
X0026000Y0126300D03*
X0026000Y0136300D03*
X0016000Y0136300D03*
X0006000Y0136300D03*
X0006000Y0126300D03*
X0006000Y0116300D03*
X0006000Y0106300D03*
X0006000Y0096300D03*
X0006000Y0086300D03*
X0006000Y0076300D03*
X0006000Y0066300D03*
X0006000Y0056300D03*
X0016000Y0056300D03*
X0026000Y0056300D03*
X0026000Y0066300D03*
X0016000Y0066300D03*
X0036000Y0066300D03*
X0036000Y0056300D03*
X0036000Y0126300D03*
X0046000Y0126300D03*
X0046000Y0136300D03*
X0036000Y0136300D03*
X0036000Y0146300D03*
X0046000Y0146300D03*
X0046000Y0156300D03*
X0036000Y0156300D03*
X0026000Y0156300D03*
X0016000Y0156300D03*
X0016000Y0146300D03*
X0026000Y0146300D03*
X0006000Y0146300D03*
X0006000Y0156300D03*
X0056000Y0156300D03*
X0066000Y0156300D03*
X0066000Y0146300D03*
X0056000Y0146300D03*
X0076000Y0146300D03*
X0086000Y0146300D03*
X0086000Y0156300D03*
X0076000Y0156300D03*
X0076000Y0166300D03*
X0086000Y0166300D03*
X0086000Y0176300D03*
X0076000Y0176300D03*
X0076000Y0186300D03*
X0086000Y0186300D03*
X0086000Y0196300D03*
X0076000Y0196300D03*
X0076000Y0206300D03*
X0086000Y0206300D03*
X0086000Y0216300D03*
X0076000Y0216300D03*
X0076000Y0226300D03*
X0086000Y0226300D03*
X0086000Y0236300D03*
X0076000Y0236300D03*
X0076000Y0246300D03*
X0086000Y0246300D03*
X0086000Y0256300D03*
X0076000Y0256300D03*
X0076000Y0266300D03*
X0086000Y0266300D03*
X0096000Y0266300D03*
X0096000Y0256300D03*
X0096000Y0246300D03*
X0096000Y0236300D03*
X0096000Y0226300D03*
X0096000Y0216300D03*
X0096000Y0206300D03*
X0106000Y0206300D03*
X0116000Y0206300D03*
X0116000Y0216300D03*
X0106000Y0216300D03*
X0106000Y0226300D03*
X0116000Y0226300D03*
X0116000Y0236300D03*
X0106000Y0236300D03*
X0106000Y0246300D03*
X0116000Y0246300D03*
X0116000Y0256300D03*
X0106000Y0256300D03*
X0106000Y0266300D03*
X0116000Y0266300D03*
X0126000Y0266300D03*
X0136000Y0266300D03*
X0136000Y0256300D03*
X0126000Y0256300D03*
X0126000Y0246300D03*
X0136000Y0246300D03*
X0136000Y0236300D03*
X0126000Y0236300D03*
X0126000Y0226300D03*
X0136000Y0226300D03*
X0136000Y0216300D03*
X0126000Y0216300D03*
X0126000Y0206300D03*
X0136000Y0206300D03*
X0146000Y0206300D03*
X0156000Y0206300D03*
X0156000Y0216300D03*
X0146000Y0216300D03*
X0146000Y0226300D03*
X0156000Y0226300D03*
X0156000Y0236300D03*
X0146000Y0236300D03*
X0146000Y0246300D03*
X0156000Y0246300D03*
X0156000Y0256300D03*
X0146000Y0256300D03*
X0146000Y0266300D03*
X0156000Y0266300D03*
X0166000Y0266300D03*
X0166000Y0256300D03*
X0166000Y0246300D03*
X0166000Y0236300D03*
X0166000Y0226300D03*
X0166000Y0216300D03*
X0166000Y0206300D03*
X0176000Y0206300D03*
X0186000Y0206300D03*
X0186000Y0216300D03*
X0176000Y0216300D03*
X0176000Y0226300D03*
X0186000Y0226300D03*
X0186000Y0236300D03*
X0176000Y0236300D03*
X0176000Y0246300D03*
X0186000Y0246300D03*
X0186000Y0256300D03*
X0176000Y0256300D03*
X0176000Y0266300D03*
X0186000Y0266300D03*
X0196000Y0266300D03*
X0206000Y0266300D03*
X0206000Y0256300D03*
X0196000Y0256300D03*
X0196000Y0246300D03*
X0206000Y0246300D03*
X0206000Y0236300D03*
X0196000Y0236300D03*
X0196000Y0226300D03*
X0206000Y0226300D03*
X0206000Y0216300D03*
X0196000Y0216300D03*
X0196000Y0206300D03*
X0206000Y0206300D03*
X0216000Y0206300D03*
X0226000Y0206300D03*
X0226000Y0216300D03*
X0216000Y0216300D03*
X0216000Y0226300D03*
X0226000Y0226300D03*
X0226000Y0236300D03*
X0216000Y0236300D03*
X0216000Y0246300D03*
X0226000Y0246300D03*
X0226000Y0256300D03*
X0216000Y0256300D03*
X0216000Y0266300D03*
X0226000Y0266300D03*
X0236000Y0266300D03*
X0246000Y0266300D03*
X0246000Y0256300D03*
X0236000Y0256300D03*
X0236000Y0246300D03*
X0246000Y0246300D03*
X0246000Y0236300D03*
X0236000Y0236300D03*
X0236000Y0226300D03*
X0246000Y0226300D03*
X0246000Y0216300D03*
X0236000Y0216300D03*
X0236000Y0206300D03*
X0246000Y0206300D03*
X0256000Y0206300D03*
X0256000Y0216300D03*
X0256000Y0226300D03*
X0256000Y0236300D03*
X0256000Y0246300D03*
X0256000Y0256300D03*
X0256000Y0266300D03*
X0266000Y0266300D03*
X0276000Y0266300D03*
X0276000Y0256300D03*
X0266000Y0256300D03*
X0266000Y0246300D03*
X0276000Y0246300D03*
X0276000Y0236300D03*
X0266000Y0236300D03*
X0266000Y0226300D03*
X0276000Y0226300D03*
X0276000Y0216300D03*
X0266000Y0216300D03*
X0266000Y0206300D03*
X0276000Y0206300D03*
X0286000Y0206300D03*
X0296000Y0206300D03*
X0296000Y0216300D03*
X0286000Y0216300D03*
X0286000Y0226300D03*
X0296000Y0226300D03*
X0296000Y0236300D03*
X0286000Y0236300D03*
X0286000Y0246300D03*
X0296000Y0246300D03*
X0296000Y0256300D03*
X0286000Y0256300D03*
X0286000Y0266300D03*
X0296000Y0266300D03*
X0306000Y0266300D03*
X0316000Y0266300D03*
X0316000Y0256300D03*
X0306000Y0256300D03*
X0306000Y0246300D03*
X0306000Y0236300D03*
X0306000Y0226300D03*
X0306000Y0216300D03*
X0306000Y0206300D03*
X0306000Y0196300D03*
X0306000Y0186300D03*
X0306000Y0176300D03*
X0306000Y0166300D03*
X0306000Y0156300D03*
X0316000Y0156300D03*
X0316000Y0146300D03*
X0306000Y0146300D03*
X0296000Y0146300D03*
X0286000Y0146300D03*
X0286000Y0156300D03*
X0296000Y0156300D03*
X0296000Y0166300D03*
X0286000Y0166300D03*
X0286000Y0176300D03*
X0296000Y0176300D03*
X0296000Y0186300D03*
X0286000Y0186300D03*
X0286000Y0196300D03*
X0296000Y0196300D03*
X0276000Y0196300D03*
X0266000Y0196300D03*
X0266000Y0186300D03*
X0276000Y0186300D03*
X0276000Y0176300D03*
X0266000Y0176300D03*
X0266000Y0166300D03*
X0276000Y0166300D03*
X0276000Y0156300D03*
X0266000Y0156300D03*
X0266000Y0146300D03*
X0276000Y0146300D03*
X0256000Y0146300D03*
X0256000Y0156300D03*
X0256000Y0166300D03*
X0256000Y0176300D03*
X0256000Y0186300D03*
X0256000Y0196300D03*
X0246000Y0196300D03*
X0236000Y0196300D03*
X0236000Y0186300D03*
X0246000Y0186300D03*
X0246000Y0176300D03*
X0236000Y0176300D03*
X0236000Y0166300D03*
X0246000Y0166300D03*
X0246000Y0156300D03*
X0236000Y0156300D03*
X0236000Y0146300D03*
X0246000Y0146300D03*
X0226000Y0146300D03*
X0216000Y0146300D03*
X0216000Y0156300D03*
X0226000Y0156300D03*
X0226000Y0166300D03*
X0216000Y0166300D03*
X0216000Y0176300D03*
X0226000Y0176300D03*
X0226000Y0186300D03*
X0216000Y0186300D03*
X0216000Y0196300D03*
X0226000Y0196300D03*
X0206000Y0196300D03*
X0196000Y0196300D03*
X0196000Y0186300D03*
X0206000Y0186300D03*
X0206000Y0176300D03*
X0196000Y0176300D03*
X0196000Y0166300D03*
X0206000Y0166300D03*
X0206000Y0156300D03*
X0196000Y0156300D03*
X0196000Y0146300D03*
X0206000Y0146300D03*
X0186000Y0146300D03*
X0176000Y0146300D03*
X0176000Y0156300D03*
X0186000Y0156300D03*
X0186000Y0166300D03*
X0176000Y0166300D03*
X0176000Y0176300D03*
X0186000Y0176300D03*
X0186000Y0186300D03*
X0176000Y0186300D03*
X0176000Y0196300D03*
X0186000Y0196300D03*
X0166000Y0196300D03*
X0166000Y0186300D03*
X0166000Y0176300D03*
X0166000Y0166300D03*
X0166000Y0156300D03*
X0166000Y0146300D03*
X0156000Y0146300D03*
X0146000Y0146300D03*
X0146000Y0156300D03*
X0156000Y0156300D03*
X0156000Y0166300D03*
X0146000Y0166300D03*
X0146000Y0176300D03*
X0156000Y0176300D03*
X0156000Y0186300D03*
X0146000Y0186300D03*
X0146000Y0196300D03*
X0156000Y0196300D03*
X0136000Y0196300D03*
X0126000Y0196300D03*
X0126000Y0186300D03*
X0136000Y0186300D03*
X0136000Y0176300D03*
X0126000Y0176300D03*
X0126000Y0166300D03*
X0136000Y0166300D03*
X0136000Y0156300D03*
X0126000Y0156300D03*
X0126000Y0146300D03*
X0136000Y0146300D03*
X0116000Y0146300D03*
X0106000Y0146300D03*
X0106000Y0156300D03*
X0116000Y0156300D03*
X0116000Y0166300D03*
X0106000Y0166300D03*
X0106000Y0176300D03*
X0116000Y0176300D03*
X0116000Y0186300D03*
X0106000Y0186300D03*
X0106000Y0196300D03*
X0116000Y0196300D03*
X0096000Y0196300D03*
X0096000Y0186300D03*
X0096000Y0176300D03*
X0096000Y0166300D03*
X0096000Y0156300D03*
X0096000Y0146300D03*
X0066000Y0256300D03*
X0056000Y0256300D03*
X0056000Y0266300D03*
X0066000Y0266300D03*
X0066000Y0276300D03*
X0056000Y0276300D03*
X0056000Y0286300D03*
X0066000Y0286300D03*
X0066000Y0296300D03*
X0056000Y0296300D03*
X0056000Y0306300D03*
X0066000Y0306300D03*
X0076000Y0306300D03*
X0086000Y0306300D03*
X0086000Y0296300D03*
X0076000Y0296300D03*
X0076000Y0286300D03*
X0086000Y0286300D03*
X0086000Y0276300D03*
X0076000Y0276300D03*
X0096000Y0276300D03*
X0096000Y0286300D03*
X0096000Y0296300D03*
X0096000Y0306300D03*
X0106000Y0306300D03*
X0116000Y0306300D03*
X0116000Y0296300D03*
X0106000Y0296300D03*
X0106000Y0286300D03*
X0116000Y0286300D03*
X0116000Y0276300D03*
X0106000Y0276300D03*
X0126000Y0276300D03*
X0136000Y0276300D03*
X0136000Y0286300D03*
X0126000Y0286300D03*
X0126000Y0296300D03*
X0136000Y0296300D03*
X0136000Y0306300D03*
X0126000Y0306300D03*
X0146000Y0306300D03*
X0156000Y0306300D03*
X0156000Y0296300D03*
X0146000Y0296300D03*
X0146000Y0286300D03*
X0156000Y0286300D03*
X0156000Y0276300D03*
X0146000Y0276300D03*
X0166000Y0276300D03*
X0166000Y0286300D03*
X0166000Y0296300D03*
X0166000Y0306300D03*
X0176000Y0306300D03*
X0186000Y0306300D03*
X0186000Y0296300D03*
X0176000Y0296300D03*
X0176000Y0286300D03*
X0186000Y0286300D03*
X0186000Y0276300D03*
X0176000Y0276300D03*
X0196000Y0276300D03*
X0206000Y0276300D03*
X0206000Y0286300D03*
X0196000Y0286300D03*
X0196000Y0296300D03*
X0206000Y0296300D03*
X0206000Y0306300D03*
X0196000Y0306300D03*
X0216000Y0306300D03*
X0226000Y0306300D03*
X0226000Y0296300D03*
X0216000Y0296300D03*
X0216000Y0286300D03*
X0226000Y0286300D03*
X0226000Y0276300D03*
X0216000Y0276300D03*
X0236000Y0276300D03*
X0246000Y0276300D03*
X0246000Y0286300D03*
X0236000Y0286300D03*
X0236000Y0296300D03*
X0246000Y0296300D03*
X0246000Y0306300D03*
X0236000Y0306300D03*
X0256000Y0306300D03*
X0256000Y0296300D03*
X0256000Y0286300D03*
X0256000Y0276300D03*
X0266000Y0276300D03*
X0276000Y0276300D03*
X0276000Y0286300D03*
X0266000Y0286300D03*
X0266000Y0296300D03*
X0276000Y0296300D03*
X0276000Y0306300D03*
X0266000Y0306300D03*
X0286000Y0306300D03*
X0296000Y0306300D03*
X0296000Y0296300D03*
X0286000Y0296300D03*
X0286000Y0286300D03*
X0296000Y0286300D03*
X0296000Y0276300D03*
X0286000Y0276300D03*
X0306000Y0276300D03*
X0316000Y0276300D03*
X0316000Y0286300D03*
X0306000Y0286300D03*
X0306000Y0296300D03*
X0316000Y0296300D03*
X0316000Y0306300D03*
X0306000Y0306300D03*
X0326000Y0306300D03*
X0336000Y0306300D03*
X0336000Y0296300D03*
X0326000Y0296300D03*
X0326000Y0286300D03*
X0336000Y0286300D03*
X0336000Y0276300D03*
X0326000Y0276300D03*
X0326000Y0266300D03*
X0336000Y0266300D03*
X0336000Y0256300D03*
X0326000Y0256300D03*
X0346000Y0256300D03*
X0346000Y0266300D03*
X0356000Y0266300D03*
X0366000Y0266300D03*
X0366000Y0256300D03*
X0356000Y0256300D03*
X0376000Y0256300D03*
X0386000Y0256300D03*
X0386000Y0266300D03*
X0376000Y0266300D03*
X0376000Y0276300D03*
X0386000Y0276300D03*
X0386000Y0286300D03*
X0366000Y0286300D03*
X0356000Y0286300D03*
X0356000Y0276300D03*
X0366000Y0276300D03*
X0346000Y0276300D03*
X0346000Y0286300D03*
X0346000Y0296300D03*
X0346000Y0306300D03*
X0356000Y0306300D03*
X0356000Y0296300D03*
X0356000Y0156300D03*
X0366000Y0156300D03*
X0366000Y0146300D03*
X0356000Y0146300D03*
X0346000Y0146300D03*
X0346000Y0156300D03*
X0336000Y0156300D03*
X0326000Y0156300D03*
X0326000Y0146300D03*
X0336000Y0146300D03*
X0336000Y0136300D03*
X0326000Y0136300D03*
X0326000Y0126300D03*
X0336000Y0126300D03*
X0336000Y0116300D03*
X0326000Y0116300D03*
X0326000Y0106300D03*
X0336000Y0106300D03*
X0336000Y0096300D03*
X0326000Y0096300D03*
X0326000Y0086300D03*
X0336000Y0086300D03*
X0336000Y0076300D03*
X0326000Y0076300D03*
X0316000Y0076300D03*
X0306000Y0076300D03*
X0306000Y0086300D03*
X0316000Y0086300D03*
X0316000Y0096300D03*
X0306000Y0096300D03*
X0306000Y0106300D03*
X0316000Y0106300D03*
X0316000Y0116300D03*
X0306000Y0116300D03*
X0306000Y0126300D03*
X0316000Y0126300D03*
X0316000Y0136300D03*
X0306000Y0136300D03*
X0346000Y0136300D03*
X0346000Y0126300D03*
X0346000Y0116300D03*
X0346000Y0106300D03*
X0346000Y0096300D03*
X0346000Y0086300D03*
X0346000Y0076300D03*
X0356000Y0076300D03*
X0366000Y0076300D03*
X0366000Y0086300D03*
X0356000Y0086300D03*
X0356000Y0096300D03*
X0366000Y0096300D03*
X0366000Y0106300D03*
X0356000Y0106300D03*
X0356000Y0116300D03*
X0366000Y0116300D03*
X0366000Y0126300D03*
X0356000Y0126300D03*
X0356000Y0136300D03*
X0366000Y0136300D03*
X0376000Y0136300D03*
X0386000Y0136300D03*
X0386000Y0126300D03*
X0376000Y0126300D03*
X0376000Y0116300D03*
X0386000Y0116300D03*
X0386000Y0106300D03*
X0376000Y0106300D03*
X0376000Y0096300D03*
X0386000Y0096300D03*
X0386000Y0086300D03*
X0376000Y0086300D03*
X0376000Y0076300D03*
X0386000Y0076300D03*
X0386000Y0066300D03*
X0376000Y0066300D03*
X0376000Y0056300D03*
X0386000Y0056300D03*
X0366000Y0056300D03*
X0356000Y0056300D03*
X0356000Y0066300D03*
X0366000Y0066300D03*
X0346000Y0066300D03*
X0346000Y0056300D03*
X0336000Y0056300D03*
X0326000Y0056300D03*
X0326000Y0066300D03*
X0336000Y0066300D03*
X0316000Y0066300D03*
X0306000Y0066300D03*
X0306000Y0056300D03*
X0316000Y0056300D03*
X0376000Y0146300D03*
X0386000Y0146300D03*
X0386000Y0156300D03*
X0376000Y0156300D03*
X0046000Y0256300D03*
X0036000Y0256300D03*
X0036000Y0266300D03*
X0046000Y0266300D03*
X0046000Y0276300D03*
X0036000Y0276300D03*
X0036000Y0286300D03*
X0046000Y0286300D03*
X0046000Y0296300D03*
X0036000Y0296300D03*
X0036000Y0306300D03*
X0046000Y0306300D03*
X0026000Y0286300D03*
X0026000Y0276300D03*
X0016000Y0276300D03*
X0006000Y0276300D03*
X0006000Y0286300D03*
X0006000Y0266300D03*
X0006000Y0256300D03*
X0016000Y0256300D03*
X0026000Y0256300D03*
X0026000Y0266300D03*
X0016000Y0266300D03*
M02*
